Coordinates
version=1
nRows=5
nColumns=63
inDegrees=yes

Units are S.I. units (second, meters, Newtons, ...)
If the header above contains a line with 'inDegrees', this indicates whether rotational values are in degrees (yes) or radians (no).

endheader
time	pelvis_tilt	pelvis_list	pelvis_rotation	pelvis_tx	pelvis_ty	pelvis_tz	hip_flexion_r	hip_adduction_r	hip_rotation_r	knee_angle_r	knee_angle_r_beta	ankle_angle_r	subtalar_angle_r	mtp_angle_r	hip_flexion_l	hip_adduction_l	hip_rotation_l	knee_angle_l	knee_angle_l_beta	ankle_angle_l	subtalar_angle_l	mtp_angle_l	L5_S1_Flex_Ext	L5_S1_Lat_Bending	L5_S1_axial_rotation	L4_L5_Flex_Ext	L4_L5_Lat_Bending	L4_L5_axial_rotation	L3_L4_Flex_Ext	L3_L4_Lat_Bending	L3_L4_axial_rotation	L2_L3_Flex_Ext	L2_L3_Lat_Bending	L2_L3_axial_rotation	L1_L2_Flex_Ext	L1_L2_Lat_Bending	L1_L2_axial_rotation	L1_T12_Flex_Ext	L1_T12_Lat_Bending	L1_T12_axial_rotation	Abs_r3	Abs_r2	Abs_r1	Abs_t1	Abs_t2	neck_flexion	neck_bending	neck_rotation	arm_flex_r	arm_add_r	arm_rot_r	elbow_flex_r	pro_sup_r	wrist_flex_r	wrist_dev_r	arm_flex_l	arm_add_l	arm_rot_l	elbow_flex_l	pro_sup_l	wrist_flex_l	wrist_dev_l
      2.03389831	     -0.44894582	     -3.42485411	     80.87101407	      0.10892304	      0.98342516	      0.28345816	     -3.46353190	      0.44849807	    -11.29257597	      3.50373407	      0.06115170	     19.10293020	     17.05336718	      0.00000000	     -3.20687977	      2.02665271	     -3.37950271	      3.65993767	      0.06387796	      5.98061570	    -18.46398983	      0.00000000	     -0.26071872	      0.38092827	      1.85501834	     -0.48418073	      0.50663460	      1.97095699	     -0.42833478	      0.92618900	      1.97095699	     -0.29797542	      0.92618900	      1.62314105	     -0.24210340	      0.77678893	      1.50720240	     -0.14897467	      0.59005789	      1.39126375	     -1.86228771	      4.30913679	     10.31705550	      0.00000000	      0.00000000	     10.76864175	     -2.47951861	     -4.82128841	     11.11973172	    -18.75503763	     47.65327093	     24.58268592	     86.70170048	    -17.89388308	     -3.48045517	     14.15299247	     -7.76980441	    198.59281645	      1.51199820	     17.16795316	    -14.60434767	      2.43367694
      2.05084746	     -0.45006388	     -3.41934281	     80.85900096	      0.10893525	      0.98334275	      0.28342987	     -3.48236491	      0.44646419	    -10.91495313	      3.43969284	      0.06003397	     19.27555631	     16.81076107	      0.00000000	     -3.27543894	      2.03320303	     -2.94206667	      3.42034967	      0.05969636	      6.44966289	    -18.40962602	      0.00000000	     -0.26117184	      0.38721557	      1.90857402	     -0.48502223	      0.51499670	      2.02785990	     -0.42907922	      0.94147593	      2.02785990	     -0.29849330	      0.94147593	      1.67000227	     -0.24252417	      0.78960998	      1.55071639	     -0.14923359	      0.59979691	      1.43143051	     -1.86552435	      4.38025992	     10.61491613	      0.00000000	      0.00000000	     10.32218462	     -2.28156172	     -4.84544054	     10.81087343	    -18.85286776	     46.89042786	     24.67139936	     86.73198866	    -18.00797413	     -3.70970585	     14.56999556	     -7.76391776	    196.98003216	      1.39769357	     18.03552807	    -12.79564851	      0.96902926
      2.06779661	     -0.46551099	     -3.46161038	     80.88096764	      0.10890095	      0.98316607	      0.28336793	     -3.44827468	      0.43872991	    -10.78874283	      3.39772408	      0.05930147	     19.36068008	     16.75059165	      0.00000000	     -3.26147462	      2.04517166	     -2.57170012	      3.25401415	      0.05679326	      7.07396658	    -18.35096751	      0.00000000	     -0.25672036	      0.39121574	      1.91849268	     -0.47675537	      0.52031694	      2.03839848	     -0.42176587	      0.95120196	      2.03839848	     -0.29340569	      0.95120196	      1.67868110	     -0.23839052	      0.79776714	      1.55877530	     -0.14669001	      0.60599319	      1.43886951	     -1.83372783	      4.42551074	     10.67008075	      0.00000000	      0.00000000	     10.00766382	     -2.18084599	     -4.70807395	     10.57197945	    -18.88569233	     46.19247169	     24.74483302	     86.86989371	    -18.11477999	     -4.12698525	     14.83288022	     -7.83150386	    195.39689794	      1.32638168	     18.57789452	    -11.67129528	     -0.34332492
      2.08474576	     -0.52618765	     -3.52589473	     80.73082406	      0.10913306	      0.98291960	      0.28330492	     -3.36545622	      0.38334048	    -10.49174603	      3.37431933	      0.05889298	     19.41194515	     16.59667367	      0.00000000	     -3.24512248	      2.11092928	     -2.43743927	      3.07034788	      0.05358768	      7.64509682	    -18.32494032	      0.00000000	     -0.25140163	      0.38985779	      1.90848906	     -0.46687797	      0.51851087	      2.02776963	     -0.41302774	      0.94790024	      2.02776963	     -0.28732692	      0.94790024	      1.66992793	     -0.23345155	      0.79499801	      1.55064736	     -0.14365089	      0.60388972	      1.43136680	     -1.79573671	      4.41014933	     10.61444362	      0.00000000	      0.00000000	      9.90021010	     -1.99774333	     -4.17930407	     10.63899379	    -18.87422601	     46.67934611	     24.64950956	     86.64305178	    -18.59095311	     -4.59981069	     14.90983568	     -8.01736675	    193.30383082	      1.25208065	     18.97162627	    -11.02325240	     -1.47418205
      2.10169492	     -0.53186852	     -3.62204773	     80.75358861	      0.10906973	      0.98264406	      0.28317434	     -3.28994948	      0.40570297	    -10.61939807	      3.32018548	      0.05794817	     19.34467384	     16.67786261	      0.00000000	     -3.15625096	      2.10512815	     -2.31320495	      2.98334121	      0.05206913	      8.13858788	    -18.25620832	      0.00000000	     -0.24192238	      0.39527696	      1.83611127	     -0.44927404	      0.52571835	      1.95086822	     -0.39745427	      0.96107639	      1.95086822	     -0.27649308	      0.96107639	      1.60659736	     -0.22464912	      0.80604877	      1.49184041	     -0.13823445	      0.61228400	      1.37708345	     -1.72802734	      4.47145198	     10.21190005	      0.00000000	      0.00000000	      9.91112870	     -2.03074370	     -3.66709399	     10.72803143	    -18.81444528	     46.89077683	     24.53920121	     86.70549853	    -18.68400107	     -5.10294050	     14.82280632	     -8.25281069	    190.22805578	      1.22632270	     19.51845229	    -11.03153864	     -2.33345653
